#!OML:ASF F:\VICON\USERDATA\INSTALL\rory3\rory3.ASF
:FULLY-SPECIFIED
:DEGREES
481
root -3.55417 15.4939 22.9463 570.816 -13.6706 182.535
lowerback 2.95971 4.25727 -6.27314
upperback -9.45336 3.38385 -7.7557
thorax -11.8707 1.29329 -5.34243
lowerneck -24.3223 11.9001 2.95695
upperneck 12.5797 17.3716 -12.1675
head 9.30136 6.8363 -1.93094
rclavicle -1.27222e-014 -9.22361e-014
rhumerus 124.514 -33.4879 245.771
rradius 11.2672
rwrist 70.7252
rhand -15.2528 5.9635
rfingers 7.12502
rthumb 10.9209 -23.7325
lclavicle -1.27222e-014 -9.22361e-014
lhumerus -2.03391 51.4443 -0.801682
lradius 21.0922
lwrist -32.6288
lhand -2.84802 29.2945
lfingers 7.12502
lthumb 22.8598 57.9597
rfemur 0.600661 9.47033 31.2582
rtibia 4.77083e-014
rfoot -44.3956 -47.3298
rtoes 0.729157
lfemur -86.0652 21.8308 -47.2962
ltibia 54.195
lfoot -27.3777 28.112
ltoes 16.4196
482
root -3.54763 15.4923 22.9564 570.657 -13.7151 182.685
lowerback 2.96039 4.15495 -6.24178
upperback -9.22781 3.33603 -7.56201
thorax -11.613 1.30321 -5.11728
lowerneck -24.4054 11.9803 3.01508
upperneck 12.4904 17.4571 -12.1908
head 9.29781 6.87827 -1.92934
rclavicle 1.66979e-014 -3.65764e-014
rhumerus 124.32 -33.4534 246.141
rradius 11.4799
rwrist 70.3855
rhand -15.0735 6.00916
rfingers 7.12502
rthumb 11.0938 -23.6776
lclavicle 1.66979e-014 -3.65764e-014
lhumerus -2.46651 52.4778 -1.06267
lradius 21.1453
lwrist -33.4381
lhand -2.72925 29.2145
lfingers 7.12502
lthumb 22.9738 57.8655
rfemur 0.712666 9.48521 31.4571
rtibia -1.59028e-014
rfoot -44.5005 -47.2941
rtoes 0.662134
lfemur -86.0588 21.936 -47.1344
ltibia 54.1954
lfoot -27.066 28.1849
ltoes 16.7264
483
root -3.54493 15.4921 22.9672 570.582 -13.739 182.794
lowerback 2.87715 4.14289 -6.20622
upperback -9.05975 3.39367 -7.44934
thorax -11.3647 1.35241 -4.99698
lowerneck -24.3364 11.9793 3.07647
upperneck 12.3547 17.4291 -12.2455
head 9.24839 6.87475 -1.96578
rclavicle 1.74931e-014 2.22639e-014
rhumerus 124.633 -33.251 245.915
rradius 11.5006
rwrist 70.6435
rhand -15.1305 6.31706
rfingers 7.12502
rthumb 11.0389 -23.3727
lclavicle 1.74931e-014 2.22639e-014
lhumerus -2.65738 51.8616 -1.06834
lradius 21.3141
lwrist -32.8961
lhand -2.70303 29.2393
lfingers 7.12502
lthumb 22.999 57.8872
rfemur 0.739584 9.51448 31.5751
rtibia -2.54444e-014
rfoot -44.6376 -47.1802
rtoes 0.986966
lfemur -86.074 21.9666 -47.0181
ltibia 54.1845
lfoot -26.7616 28.1336
ltoes 17.9253
484
root -3.5456 15.4904 22.9783 570.5 -13.9204 182.887
lowerback 2.82047 4.12211 -6.05876
upperback -8.91591 3.44618 -7.32823
thorax -11.1527 1.38996 -4.9333
lowerneck -24.1127 11.9526 2.93085
upperneck 12.0804 17.3997 -12.2602
head 9.10287 6.87981 -1.96942
rclavicle 4.69132e-014 1.30403e-013
rhumerus 125.007 -33.065 245.691
rradius 11.3349
rwrist 71.0152
rhand -15.4052 6.38559
rfingers 7.12502
rthumb 10.7739 -23.3181
lclavicle 4.69132e-014 1.30403e-013
lhumerus -2.7388 51.0934 -0.873806
lradius 21.5349
lwrist -32.1557
lhand -2.8216 29.2014
lfingers 7.12502
lthumb 22.8852 57.8634
rfemur 0.778105 9.3937 31.7479
rtibia 1.90833e-014
rfoot -44.4543 -47.2979
rtoes 0.68475
lfemur -86.0354 21.8681 -46.8428
ltibia 54.1974
lfoot -26.3912 28.188
ltoes 18.3147
485
root -3.54197 15.4909 22.9861 570.423 -13.9144 182.885
lowerback 2.67315 4.13187 -6.21555
upperback -8.70468 3.52387 -7.21749
thorax -10.8348 1.46412 -4.70374
lowerneck -24.0262 11.9408 2.66218
upperneck 11.7722 17.4022 -12.1678
head 8.94813 6.90207 -1.91075
rclavicle 7.15625e-014 -1.59028e-015
rhumerus 125.518 -32.8093 245.373
rradius 11.0417
rwrist 71.4226
rhand -15.5705 6.42015
rfingers 7.12502
rthumb 10.6144 -23.2918
lclavicle 7.15625e-014 -1.59028e-015
lhumerus -2.70759 51.17 -0.621684
lradius 21.5865
lwrist -31.8943
lhand -3.33114 29.3388
lfingers 7.12502
lthumb 22.3961 58.0605
rfemur 0.841047 9.38522 31.7659
rtibia -9.54166e-015
rfoot -44.2645 -47.3514
rtoes 0.774299
lfemur -86.0112 21.9367 -46.8924
ltibia 54.165
lfoot -26.0605 28.3281
ltoes 17.8939
486
root -3.53941 15.4939 22.9911 570.375 -13.7927 182.942
lowerback 2.59508 4.18214 -6.14982
upperback -8.59741 3.61017 -7.32225
thorax -10.6506 1.49784 -4.848
lowerneck -23.8978 11.9206 2.65443
upperneck 11.4674 17.2941 -11.932
head 8.78536 6.90979 -1.8632
rclavicle 9.93923e-014 1.145e-013
rhumerus 125.858 -32.7968 244.803
rradius 10.9492
rwrist 71.904
rhand -15.5845 6.40106
rfingers 7.12502
rthumb 10.601 -23.3116
lclavicle 9.93923e-014 1.145e-013
lhumerus -2.4019 51.4647 -0.520992
lradius 21.5469
lwrist -32.0078
lhand -3.46815 29.1113
lfingers 7.12502
lthumb 22.2646 57.8487
rfemur 0.869921 9.51527 31.7607
rtibia -3.81667e-014
rfoot -44.2845 -47.2341
rtoes 1.00147
lfemur -86.0337 22.0693 -46.8931
ltibia 54.1654
lfoot -26.0408 28.3236
ltoes 17.9945
487
root -3.53968 15.4924 22.9996 570.345 -13.6836 183.093
lowerback 2.48154 4.18656 -6.03032
upperback -8.4794 3.66239 -7.33213
thorax -10.4334 1.52088 -4.9094
lowerneck -23.7913 11.963 2.63267
upperneck 11.1237 17.2886 -11.8016
head 8.63202 6.95051 -1.83049
rclavicle -3.57812e-014 -3.02153e-014
rhumerus 126.049 -32.6398 244.344
rradius 11.0092
rwrist 72.2575
rhand -15.6832 6.40143
rfingers 7.12502
rthumb 10.5057 -23.316
lclavicle -3.57812e-014 -3.02153e-014
lhumerus -2.50754 51.1369 -0.729308
lradius 21.6047
lwrist -31.6689
lhand -3.32939 29.0471
lfingers 7.12502
lthumb 22.3978 57.7685
rfemur 0.842844 9.69283 31.8371
rtibia -3.49861e-014
rfoot -44.1133 -47.4435
rtoes 0.53058
lfemur -86.1406 22.1849 -46.829
ltibia 54.1724
lfoot -26.1859 28.2252
ltoes 18.3877
488
root -3.53868 15.4924 23.0039 570.297 -13.6488 183.329
lowerback 2.51498 4.20251 -5.82375
upperback -8.49439 3.70714 -7.30685
thorax -10.4515 1.5309 -5.00477
lowerneck -23.6544 11.9659 2.48581
upperneck 10.9798 17.2689 -11.5192
head 8.5141 6.98583 -1.73211
rclavicle 9.78021e-014 1.09729e-013
rhumerus 126.15 -32.3427 243.688
rradius 10.9465
rwrist 73.0351
rhand -16.3482 6.41571
rfingers 7.12502
rthumb 9.86425 -23.3332
lclavicle 9.78021e-014 1.09729e-013
lhumerus -2.63986 50.3214 -0.940111
lradius 21.6984
lwrist -30.9611
lhand -3.55592 28.8992
lfingers 7.12502
lthumb 22.1804 57.6467
rfemur 0.822197 9.84572 32.0377
rtibia 6.36111e-015
rfoot -44.1621 -47.5239
rtoes 0.362468
lfemur -86.304 22.3207 -46.6444
ltibia 54.2313
lfoot -26.2213 28.1229
ltoes 19.0865
489
root -3.53684 15.4967 23.0063 570.137 -13.709 183.418
lowerback 2.6978 4.20706 -5.68079
upperback -8.42979 3.7217 -7.33352
thorax -10.4734 1.52986 -5.12508
lowerneck -23.8744 11.9343 2.31274
upperneck 11.2362 17.2355 -11.0561
head 8.56822 6.9954 -1.55096
rclavicle -7.15625e-015 2.8625e-014
rhumerus 126.523 -31.8895 242.627
rradius 10.8602
rwrist 74.2206
rhand -16.9023 6.52073
rfingers 7.12502
rthumb 9.32959 -23.2528
lclavicle -7.15625e-015 2.8625e-014
lhumerus -2.55356 49.4188 -0.964439
lradius 21.7874
lwrist -30.2475
lhand -3.81674 29.0128
lfingers 7.12502
lthumb 21.9299 57.7899
rfemur 0.969788 9.80584 32.1814
rtibia -5.08889e-014
rfoot -44.409 -47.2807
rtoes 0.967647
lfemur -86.2226 22.4354 -46.4932
ltibia 54.2923
lfoot -26.5091 27.8665
ltoes 20.0255
